<svg xmlns="http://www.w3.org/2000/svg" height="33" width="50"><path d="M49.165 23.107a11.624 11.628 0 0 0-6.446 1.75c-.366.2-.726.4-1.106.57l7.987-9.502a1.63 1.63 0 0 0 .247-1.76 1.663 1.664 0 0 0-1.516-.961H41.1l-8.782-6.332-.425-.84A4.97 4.972 0 0 0 27.422 3.3h-8.575l-.833-1.65H22.5a.825.825 0 1 0 0-1.651h-9.165a.825.825 0 1 0 0 1.65h2.819l.833 1.651h-3.652a2.475 2.476 0 1 0 0 4.951h1.152l-2.5 4.952h-.735a1.66 1.66 0 0 0-1.333.66l-2 2.641H6.487a.828.828 0 0 0-.7.38l-4.053 6.252c-.287-.02-.578-.03-.895-.03a.825.825 0 1 0 0 1.65 10.178 10.181 0 0 1 5.638 1.54 11.715 11.719 0 0 0 6.445 1.761 11.34 11.344 0 0 0 5.16-1.09l.012-.01a20.4 20.4 0 0 0 1.269-.66 11.089 11.092 0 0 1 11.274 0 12.688 12.692 0 0 0 12.894 0 10.18 10.183 0 0 1 5.638-1.54.825.825 0 1 0-.004-1.651zM31.395 8.252l2.291 1.651h-9.52a.831.831 0 0 1-.833-.83v-.82zm-18.061-1.65a.825.825 0 1 1 0-1.65h14.09a3.323 3.324 0 0 1 2.878 1.65zm3.015 1.65h5.317v.82a2.49 2.49 0 0 0 2.5 2.481h11.812l2.291 1.651h-24.42zm-5.1 6.602H28.33v.82a.831.831 0 0 1-.834.831H10.002zM37.08 26.408a10.206 10.21 0 0 1-5.644-1.55 12.737 12.74 0 0 0-12.886 0 11.023 11.026 0 0 1-11.273 0 12.772 12.776 0 0 0-3.72-1.49l3.38-5.213h20.564a2.49 2.49 0 0 0 2.5-2.48v-.82h2.5v2.47a.833.833 0 0 0 1.666 0v-2.47h1.667v2.47a.833.833 0 0 0 1.666 0v-2.47h1.667v2.47a.834.834 0 0 0 1.667 0v-2.47h7.492l-9.6 11.443a12.858 12.862 0 0 1-1.644.11zm12.083 1.65a11.624 11.628 0 0 0-6.446 1.751 11.033 11.036 0 0 1-11.278 0 12.743 12.747 0 0 0-12.89 0 11.023 11.026 0 0 1-11.272 0 11.617 11.62 0 0 0-6.444-1.75.822.822 0 0 0-.833.82.831.831 0 0 0 .833.83 10.178 10.181 0 0 1 5.638 1.54 12.736 12.74 0 0 0 12.886 0 11.089 11.092 0 0 1 11.274 0 12.752 12.756 0 0 0 12.895 0 10.174 10.177 0 0 1 5.637-1.54.831.831 0 0 0 .833-.83.822.822 0 0 0-.831-.82z" fill="#ddd" fill-rule="evenodd"/></svg>