<svg xmlns="http://www.w3.org/2000/svg" height="50" width="50"><path d="M18.988 27.34h-2.3a.975.974 0 1 0 0 1.948h2.3a.975.974 0 1 0 0-1.948zm-7.912-1.957a2.93 2.927 0 1 0 2.93 2.926 2.937 2.934 0 0 0-2.93-2.926zm0 3.905a.975.974 0 1 1 .977-.979.98.979 0 0 1-.977.98zm11.11-14.654a.978.977 0 0 0-1.668.69.974.973 0 0 0 .287.689.991.99 0 0 0 .69.29.955.954 0 0 0 .691-.29.977.976 0 0 0 .286-.69 1 .999 0 0 0-.286-.689zM49.84 35.472l-4.927-7.602a3.118 3.115 0 0 0-2.634-1.429H37.5v-5.464h1.417a2.1 2.098 0 0 0 2.1-2.097v-5.275a2.1 2.098 0 0 0-2.1-2.097h-1.418V3.676A3.683 3.679 0 0 0 33.82 0H7.194a3.683 3.679 0 0 0-3.678 3.676v7.832H2.1A2.1 2.098 0 0 0 0 13.605v5.275a2.1 2.098 0 0 0 2.1 2.097h1.418v7.902a6.058 6.051 0 0 0 5.273 5.993v1.03a2.93 2.927 0 1 0 5.858 0v-.98h2.658l-.352.55a.953.952 0 0 0-.157.529v7.312a2.73 2.728 0 0 0 2.731 2.727h1.83v.98a2.93 2.927 0 0 0 5.86 0v-.98h12.36v.98a2.93 2.927 0 1 0 5.86 0v-.98h1.83A2.73 2.728 0 0 0 50 43.313v-7.312a.946.945 0 0 0-.16-.53zM37.498 13.465h1.418a.141.14 0 0 1 .144.14v5.275a.149.149 0 0 1-.144.15h-1.418zM3.516 19.03H2.1a.149.149 0 0 1-.145-.15v-5.274a.141.14 0 0 1 .145-.14h1.418v5.564zm35.59 9.36l-2.3 2.298a.976.975 0 0 0 1.381 1.378l3.68-3.676h.412a1.176 1.175 0 0 1 .994.54l3.951 6.093H28.6l6.6-6.593c.012-.01.023-.03.035-.04h3.871zm-13.27 6.633h-6.268l3.952-6.093a1.176 1.175 0 0 1 .994-.54h7.962zm-2.37-21.666a.967.966 0 0 0 1.38 0l7.514-7.502h3.186v15.902h-28.7L22.768 5.854H29.6l-6.133 6.123a.976.975 0 0 0 0 1.379zm-18-9.68A1.726 1.724 0 0 1 7.19 1.948h26.627a1.726 1.724 0 0 1 1.725 1.728v.22H5.469v-.22zm0 2.178h14.54L5.465 20.378zM12.69 35.9a.977.976 0 1 1-1.952 0v-.979h1.96v.98zm-3.124-2.927a4.106 4.102 0 0 1-4.1-4.095v-5.175h30.077v2.737h-11.03a3.118 3.115 0 0 0-2.634 1.429l-3.31 5.104h-9zM25.26 47.02a.977.976 0 0 1-1.954 0v-.979h1.954zm18.22 0a.977.976 0 0 1-1.954 0v-.979h1.953zm4.561-3.706a.78.78 0 0 1-.778.78H19.527a.78.78 0 0 1-.778-.78V36.97h29.3v6.343zm-10.189-3.756h-8.918a.975.974 0 1 0 0 1.948h8.918a.975.974 0 1 0 .003-1.948zm-12.167.29a.966.965 0 0 0-1.38 0 .974.973 0 0 0-.287.69 1.01 1.009 0 0 0 .287.688.99.989 0 0 0 1.38 0 1.01 1.009 0 0 0 .287-.689.974.973 0 0 0-.284-.69zm16.44 0a.968.967 0 0 0-1.383 0 .973.972 0 0 0-.286.69 1.009 1.008 0 0 0 .286.688.993.992 0 0 0 1.382 0 1.008 1.007 0 0 0 .285-.689.972.97 0 0 0-.282-.69z" fill="#ffd200" fill-rule="evenodd"/></svg>