<svg xmlns="http://www.w3.org/2000/svg" height="50" width="50"><path d="M43.238 14.54a1.051 1.051 0 0 0-.056-.19 1.164 1.164 0 0 0-.089-.16.638.638 0 0 0-.122-.15.58.579 0 0 0-.149-.12.6.6 0 0 0-.168-.09.627.627 0 0 0-.182-.06 1.224 1.224 0 0 0-.382 0 .614.614 0 0 0-.183.06.6.6 0 0 0-.169.09.574.574 0 0 0-.148.12.612.612 0 0 0-.121.15 1.075 1.075 0 0 0-.09.16 1.138 1.138 0 0 0-.056.19.942.942 0 0 0-.019.19.973.973 0 0 0 .286.69.574.574 0 0 0 .148.12.6.6 0 0 0 .17.09 1.152 1.152 0 0 0 .182.06 1.213 1.213 0 0 0 .19.02 1.251 1.251 0 0 0 .192-.02 1.211 1.211 0 0 0 .182-.06.6.6 0 0 0 .168-.09.58.579 0 0 0 .15-.12.977.977 0 0 0 .285-.69.874.874 0 0 0-.019-.19zM15.71 42.11a.857.857 0 0 0-.056-.19 1.27 1.27 0 0 0-.09-.17.812.812 0 0 0-.121-.14 1.013 1.013 0 0 0-.148-.13c-.053-.03-.11-.06-.17-.09a1.123 1.123 0 0 0-.182-.05.822.822 0 0 0-.383 0 1.17 1.169 0 0 0-.182.05c-.059.03-.116.06-.168.09a.971.971 0 0 0-.149.13.812.812 0 0 0-.12.14 1.4 1.4 0 0 0-.09.17.857.857 0 0 0-.056.19.872.872 0 0 0-.02.19 1.024 1.024 0 0 0 .02.19.952.952 0 0 0 .055.18.915.915 0 0 0 .09.17 1.591 1.591 0 0 0 .121.15c.045.04.1.08.15.12.048.04.108.06.167.09a1.17 1.169 0 0 0 .182.05.628.628 0 0 0 .193.02.612.612 0 0 0 .19-.02 1.123 1.123 0 0 0 .183-.05c.059-.03.116-.06.169-.09.053-.03.1-.08.148-.12a1.591 1.591 0 0 0 .12-.15.86.859 0 0 0 .09-.17.956.956 0 0 0 .057-.18 1.11 1.11 0 0 0 .019-.19.941.941 0 0 0-.02-.19zM48.978 17.9A25.06 25.056 0 0 0 32.095 1.02a25.19 25.186 0 0 0-14.192 0A25.056 25.052 0 0 0 1.021 17.9a25.166 25.162 0 0 0 0 14.19 25.044 25.04 0 0 0 16.882 16.89 25.19 25.186 0 0 0 14.192 0 25.048 25.044 0 0 0 16.883-16.89 25.154 25.15 0 0 0 0-14.19zM31.961 7.18a19.213 19.21 0 0 1 6.56 4.3c.236.23.47.48.7.73a.987.987 0 0 0 .727.32.96.96 0 0 0 .652-.25.977.977 0 0 0 .073-1.38c-.248-.27-.506-.55-.767-.81a21.262 21.258 0 0 0-7.623-4.88l.32-1.98A22.953 22.949 0 0 1 46.768 17.4l-10.17 1.64a13.022 13.02 0 0 0-5.636-5.64zM36.081 25a10.95 10.948 0 0 1-.946 4.48 11.082 11.08 0 0 1-5.653 5.66 11.172 11.17 0 0 1-8.972 0 11.079 11.077 0 0 1-5.652-5.66 11.102 11.1 0 0 1 0-8.97 11.096 11.094 0 0 1 5.652-5.65 11.064 11.062 0 0 1 8.972 0 11.102 11.1 0 0 1 5.653 5.65 11.03 11.029 0 0 1 .946 4.49zM24.995 1.95a23.317 23.313 0 0 1 5.716.71l-1.606 9.96a13.123 13.121 0 0 0-8.22 0L19.28 2.66a23.317 23.313 0 0 1 5.716-.71zM18.03 7.18l1 6.22a13.022 13.02 0 0 0-5.636 5.64l-6.22-1.01A19.245 19.242 0 0 1 18.028 7.18zm-.637-3.95l.319 1.98A21.124 21.12 0 0 0 5.209 17.72l-1.98-.32A22.95 22.947 0 0 1 17.395 3.23zM1.944 25a23.157 23.153 0 0 1 .714-5.72l9.96 1.61a13.11 13.108 0 0 0 0 8.22l-9.96 1.6A23.136 23.132 0 0 1 1.944 25zm15.687 20.28l-.239 1.48A22.936 22.932 0 0 1 3.227 32.6l1.979-.32a21.245 21.241 0 0 0 4.883 7.62c.324.33.664.64 1.01.95a.983.983 0 0 0 .643.24.975.975 0 0 0 .644-1.71c-.313-.28-.622-.56-.916-.86a19.283 19.28 0 0 1-4.295-6.56l6.221-1a13.002 13 0 0 0 5.636 5.63zm7.364 2.76a23.317 23.313 0 0 1-5.716-.71l1.607-9.96a13.123 13.121 0 0 0 8.219 0l1.606 9.96a23.317 23.313 0 0 1-5.716.71zm6.966-5.23l-1-6.22a13.002 13 0 0 0 5.636-5.63l6.221 1a19.167 19.164 0 0 1-10.857 10.85zm.638 3.95l-.24-1.48-.08-.5a21.143 21.139 0 0 0 12.503-12.5l1.979.32a22.938 22.934 0 0 1-14.164 14.16zm14.733-16.05l-9.959-1.6a13.11 13.108 0 0 0 0-8.22l9.959-1.61a23.233 23.229 0 0 1 0 11.43z" fill="#ddd" fill-rule="evenodd"/></svg>