<svg xmlns="http://www.w3.org/2000/svg" height="50" width="43"><path d="M41.257 39.33a8.819 8.819 0 0 0-5.832-6.96l-1-.34a4.457 4.457 0 0 0 1.314-3v-.33l-.231-.24a6.542 6.542 0 0 1-2.142-5.07h-1.582a8.132 8.132 0 0 0 2.343 5.94 2.671 2.671 0 0 1-1.583 2.06l-3.924-1.33v-1.03h-1.582v1.51l-1.181 4.82-3.195-3.91h-2.323l-3.2 3.91-1.18-4.82v-1.51h-1.582v1.03l-3.923 1.33a2.666 2.666 0 0 1-1.584-2.06 8.132 8.132 0 0 0 2.343-5.94H9.631a6.542 6.542 0 0 1-2.141 5.07l-.232.24v.33a4.462 4.462 0 0 0 1.314 3l-1 .35a8.792 8.792 0 0 0-5.832 6.95L0 50h43zm-17.384 9.06h-4.746v-4.84h4.746zm11.55 0a8.442 8.442 0 0 0 .315-2.43 11.115 11.115 0 0 0-1.714-5.28l-1.317.89a9.588 9.588 0 0 1 1.45 4.39 5.648 5.648 0 0 1-.427 2.43h-8.275v-6.46H22.78l1.8-3.67-1.416-.72-1.665 3.4-1.665-3.4-1.415.72 1.8 3.67h-2.675v6.46H9.273a5.6 5.6 0 0 1-.43-2.43 9.641 9.641 0 0 1 1.45-4.39l-1.317-.89a11.111 11.111 0 0 0-1.715 5.28 8.4 8.4 0 0 0 .316 2.43h-5.71l1.437-8.79a7.222 7.222 0 0 1 4.771-5.7l6.536-2.22 1.753 7.15 4.715-5.77h.84l4.716 5.77 1.752-7.15 6.537 2.22a7.224 7.224 0 0 1 4.771 5.7l1.436 8.79h-5.709zM5.68 15.32h3.185a4.051 4.051 0 0 0-.812 2.42 4 4 0 0 0 3.514 3.99 8.856 8.856 0 0 0 2.2 3.78l3.085 3.15a3.893 3.893 0 0 0 2.8 1.18h3.707a3.9 3.9 0 0 0 2.8-1.18l3.085-3.15a8.877 8.877 0 0 0 2.2-3.78 4 4 0 0 0 3.512-3.99 4.057 4.057 0 0 0-.811-2.42h3.184a2.42 2.42 0 0 0 0-4.84h-3.982C33.062 3.53 29.091 0 21.509 0 13.927 0 9.957 3.53 9.672 10.48H5.68a2.42 2.42 0 0 0 0 4.84zm3.955 2.42a2.409 2.409 0 0 1 1.582-2.27v3.77c0 .26.015.52.037.78a2.409 2.409 0 0 1-1.619-2.28zm20.566 1.5a7.272 7.272 0 0 1-2.085 5.13l-3.085 3.15a2.355 2.355 0 0 1-1.677.7h-3.708a2.361 2.361 0 0 1-1.678-.7l-3.084-3.15a7.272 7.272 0 0 1-2.085-5.13v-3.92h17.4v3.92zm1.545.78c.022-.26.037-.52.037-.78v-3.77a2.417 2.417 0 0 1-.037 4.55zM21.5 1.61c6.721 0 9.993 2.83 10.257 8.87H11.243c.265-6.04 3.537-8.87 10.257-8.87zM5.68 12.09h31.64a.81.81 0 0 1 0 1.62H5.68a.81.81 0 0 1 0-1.62zm7.91-4.83h1.582v1.61H13.59zm3.164 0h11.074v1.61H16.754z" fill="#ffd200" fill-rule="evenodd"/></svg>