<svg xmlns="http://www.w3.org/2000/svg" height="50" width="50"><path d="M34.375 21.09a.975.975 0 1 0 .976.98.979.979 0 0 0-.976-.98zm-22.656 0a.975.975 0 1 0 .976.98.98.98 0 0 0-.976-.98zm25.585-10.74H13.187a9.117 9.117 0 0 0-9.277 8.52 8.782 8.782 0 0 0 8.785 9.06h5.789a.977.977 0 0 0 .943-.73l.285-1.07a5.474 5.474 0 0 1 10.576 0l.285 1.07a.978.978 0 0 0 .944.73h5.3a9.117 9.117 0 0 0 9.275-8.52 8.782 8.782 0 0 0-8.792-9.06zm6.833 9a7.15 7.151 0 0 1-7.324 6.62h-4.545l-.093-.34a7.427 7.427 0 0 0-14.35 0l-.092.34h-5.038a6.828 6.828 0 0 1-6.832-7.05 7.15 7.15 0 0 1 7.324-6.62H37.3a6.834 6.834 0 0 1 6.837 7.05zm3.91-6.97V.97A.977.977 0 0 0 47.07 0h-5.86a.977.977 0 0 0-.976.97v5.81a13.052 13.052 0 0 0-2.93-.34H13.187C6.237 6.44.215 11.8.007 18.75a12.682 12.682 0 0 0 12.688 13.08h7.289a2.93 2.931 0 0 0 2.83-2.17l.674-2.52a1.563 1.563 0 0 1 3.025 0l.673 2.52a2.93 2.93 0 0 0 2.83 2.17h6.8a13.567 13.567 0 0 0 3.421-.44v5.91a2.927 2.927 0 0 1-2.93 2.93h-5.636a2.94 2.94 0 0 0-2.761-1.95h-7.813a2.94 2.941 0 0 0-2.762 1.95H13.28a.979.979 0 0 0-.976.98v5.86a.97.97 0 0 0 .976.97h5.05A2.936 2.936 0 0 0 21.095 50h7.813a2.935 2.935 0 0 0 2.76-1.96h6.614a9.76 9.76 0 0 0 9.765-9.76V25.77a12.2 12.2 0 0 0 1.947-6.24 12.587 12.587 0 0 0-1.947-7.15zM18.163 46.09h-3.906v-3.9h3.906zm11.719.98a.971.971 0 0 1-.976.97h-7.813a.971.971 0 0 1-.977-.97v-5.86a.98.98 0 0 1 .977-.98h7.813a.979.979 0 0 1 .976.98zm6.445-.98h-4.492v-3.9h4.492zm5.86-44.14h3.905v8.03a12.759 12.759 0 0 0-3.906-2.56zM38.28 46.09v-4a5.066 5.066 0 0 0 1.716-.71l3.074 3.07a7.77 7.77 0 0 1-4.79 1.64zm6.171-3.02L41.378 40a4.98 4.981 0 0 0 .52-1.05h4.164a7.772 7.772 0 0 1-1.61 4.12zm1.641-6.06h-3.906v-6.3a13.436 13.436 0 0 0 3.906-2.59zm1.948-17.54a10.81 10.81 0 0 1-7.216 9.69 11.457 11.457 0 0 1-4.012.72h-6.8a.979.979 0 0 1-.943-.73l-.673-2.52a3.519 3.519 0 0 0-6.8 0l-.673 2.52a.98.98 0 0 1-.945.73H12.69A10.736 10.736 0 0 1 1.954 18.81C2.127 13.07 7.164 8.4 13.183 8.4H37.3a10.743 10.743 0 0 1 10.741 11.07zM26.953 42.19h-3.906a.975.975 0 1 0 0 1.95h3.906a.975.975 0 1 0 0-1.95zm-8.684-26.67a.979.979 0 0 0-1.381 0l-2.93 2.93a.976.976 0 0 0 1.38 1.38l2.93-2.93a.976.976 0 0 0 0-1.38zm22.655 0a.979.979 0 0 0-1.38 0l-2.93 2.93a.976.976 0 0 0 1.381 1.38l2.93-2.93a.974.974 0 0 0 0-1.38z" fill="#ddd" fill-rule="evenodd"/></svg>