<svg xmlns="http://www.w3.org/2000/svg" height="49" width="50"><path d="M40.536 35v4.48c.488-.02.976-.04 1.463-.05v-4.71a14.515 14.515 0 0 1-1.463.28zm8.243.61a1.212 1.212 0 0 0 1.219-1.2v-7.93a1.212 1.212 0 0 0-1.219-1.2h-1.092v-1.83a1.212 1.212 0 0 0-1.219-1.2h-2.39a1.213 1.213 0 0 0-1.22 1.2v1.83h-.86v-.01c0-.71-.114-1.33-.1-2a3.866 3.866 0 0 0-.239-1.12 7.593 7.593 0 0 0-.928-1.96 7.908 7.908 0 0 0-1.444-1.64c-.178-.15-1.805-1.09-1.805-1.16V8.55a1.4 1.4 0 0 0 1.39-1.39V4.57a1.409 1.409 0 0 0-1.415-1.39h-.866V1.2a1.212 1.212 0 0 0-1.22-1.2H32.29a1.212 1.212 0 0 0-1.219 1.2v1.98h-.873a1.409 1.409 0 0 0-1.415 1.39v2.59a1.4 1.4 0 0 0 1.39 1.39v8.84a7.952 7.952 0 0 0-1.727 1.1.718.718 0 0 0-.084 1.02.74.74 0 0 0 1.031.08 6.52 6.52 0 0 1 1.784-1.06.718.718 0 0 0 .459-.67v-3.8h4.377v3.8a.718.718 0 0 0 .459.67 6.375 6.375 0 0 1 3.934 4.65h-5.608a1.693 1.693 0 0 0-1.707 1.68v.42h-5.978v-.84a6.36 6.36 0 0 1 .06-.87.715.715 0 0 0-.625-.81.725.725 0 0 0-.825.61 7.9 7.9 0 0 0-.073 1.07v.84h-1.312v-.84a8.606 8.606 0 0 0-.384-2.41 7.694 7.694 0 0 0-2.41-3.54c-.171-.15-1.728-1.03-1.728-1.1V8.55a1.4 1.4 0 0 0 1.39-1.39V4.57a1.408 1.408 0 0 0-1.414-1.39h-.867V1.2a1.212 1.212 0 0 0-1.22-1.2h-3.077a1.212 1.212 0 0 0-1.219 1.2v1.98h-.867a1.408 1.408 0 0 0-1.414 1.39v2.59a1.4 1.4 0 0 0 1.389 1.39v8.84a7.764 7.764 0 0 0-4.521 7.05v.84h-.4v-1.83a1.212 1.212 0 0 0-1.22-1.2H3.987a1.212 1.212 0 0 0-1.22 1.2v1.83H1.219A1.212 1.212 0 0 0 0 26.48v7.93a1.212 1.212 0 0 0 1.219 1.2h1.548v3.06H1.219A1.212 1.212 0 0 0 0 39.87v7.93A1.212 1.212 0 0 0 1.219 49h47.562A1.212 1.212 0 0 0 50 47.8v-7.93a1.212 1.212 0 0 0-1.219-1.2h-1.092v-3.06h1.092zM32.53 1.44h2.593v1.74H32.53zm3.485 11.17h-4.376V8.55h4.376zm1.39-5.5h-7.156V4.62h7.156zm6.917 16.58h1.9v1.59h-1.9zm-9.764 1.17a.244.244 0 0 1 .244-.24h5.734v.66h-5.978zM14.872 1.44h2.594v1.74h-2.594zm-2.281 3.18h7.156v2.49h-7.156zm5.766 3.93v4.06h-4.376V8.55zm-8.9 15.89a6.342 6.342 0 0 1 4.061-5.91.717.717 0 0 0 .46-.67v-3.8h4.376v3.8a.717.717 0 0 0 .46.67 6.375 6.375 0 0 1 3.934 4.65h-5.606a1.693 1.693 0 0 0-1.707 1.68v.42H9.457zm13.419.18v.66h-5.978v-.42a.244.244 0 0 1 .244-.24zm-18.651-.93h1.9v1.59h-1.9zm44.307 16.42v7.45H1.461v-7.45h47.074zM4.225 38.67v-3.06h1.9v3.06zm3.366 0v-3.06h.407v3.06h-.4zm9.307 0v-3.06h5.978v3.06zm7.441-3.06h1.312v3.06h-1.312zm2.775 3.06v-3.06h5.984v3.06H27.12zm7.441 0v-3.06h5.978v3.06h-5.975zm7.441 0v-3.06h.859v3.06h-.857zm2.323 0v-3.06h1.9v3.06zm-29.128-4.5a.72.72 0 1 0 0 1.44h.244v3.06H9.457v-3.06h.5a.72.72 0 1 0 0-1.44h-8.5v-7.45h47.074v7.45H15.198zM5.177 28.09a.72.72 0 1 1-.732.72.724.724 0 0 1 .735-.72zm0 3.26a.732.732 0 0 1 .731.73.732.732 0 0 1-1.463 0 .733.733 0 0 1 .735-.73zm0 10.13a.72.72 0 1 1-.732.72.724.724 0 0 1 .735-.72zm0 3.27a.72.72 0 1 1-.732.72.724.724 0 0 1 .735-.72zM45.27 28.09a.72.72 0 1 1-.731.72.725.725 0 0 1 .734-.72zm0 3.26a.733.733 0 0 1 .732.73.732.732 0 0 1-1.463 0 .732.732 0 0 1 .734-.73zm0 10.13a.72.72 0 1 1-.731.72.725.725 0 0 1 .734-.72zm0 3.27a.72.72 0 1 1-.731.72.725.725 0 0 1 .734-.72z" fill="#ddd" fill-rule="evenodd"/></svg>