<svg xmlns="http://www.w3.org/2000/svg" height="29" width="100"><path d="M45.133 7.753a1.902 1.95 0 0 1 .677-.783 5.92 6.067 0 0 1 1.808.513.953.976 0 0 1 .175.696c-.012 2.426-.063 4.853-.054 7.29a5.943 6.09 0 0 0 .301 1.769c.317 1.025 1.118 1.16 1.782.319a2.872 2.943 0 0 0 .68-2.32 11.423 11.707 0 0 1 .54-5.473 5.66 5.8 0 0 1 1.86-2.697 2.71 2.778 0 0 1 3.774.367c.124.136.24.28.356.426a.453.464 0 0 0 .122-.078c.132-.976.249-1.054 1.217-.84.204.038.404.106.606.154a.83.85 0 0 1 .673.996c-.051 2.513-.068 5.027-.095 7.54v.668l.206.087a2.181 2.235 0 0 1 .138-.28 19.142 19.619 0 0 0 2.606-5.473 1.073 1.1 0 0 0-.213-1.218 1.792 1.837 0 0 1-.176-2.069 1.54 1.578 0 0 1 1.336-1.025 1.168 1.197 0 0 1 1.44 1.383c0 .174-.028.338-.053.638.566-.097 1.087-.184 1.604-.28.39-.068.774-.184 1.166-.223 1.271-.145 1.828.532 1.56 1.828a72.02 72.02 0 0 0-.693 3.731 6.766 6.934 0 0 0 .41 3.732 1.491 1.529 0 0 0 .88.938 1.96 2.009 0 0 0 1.618-2.33 11.213 11.493 0 0 1 .477-6.033 4.664 4.78 0 0 1 2.098-2.794 2.855 2.926 0 0 1 3.615.774c.09.106.181.212.283.338a2.17 2.224 0 0 1 .383-.87 6.037 6.188 0 0 1 1.74.184.797.817 0 0 1 .493.986 371.915 371.915 0 0 0-.012 7.609 4.362 4.47 0 0 0 .354 1.556.86.88 0 0 0 1.51.31 3.967 4.065 0 0 0 1.268-2.853c0-2.455.013-4.901.022-7.357 0-.822.1-.9.867-.783l.25.029c1.225.174 1.292.251 1.29 1.527v3.452l.157.029c.109-.3.214-.61.325-.909.388-1.063.749-2.146 1.175-3.19.404-.996.708-1.15 1.547-.967a1.754 1.797 0 0 1 1.646 1.72c.072 1.673.15 3.346.227 5.028a.578.593 0 0 0 .16.397c.047-.126.1-.261.14-.397.553-1.933 1.068-3.886 1.672-5.8.312-.987.787-1.17 1.748-.87a5.188 5.317 0 0 1 .973.434 1.387 1.421 0 0 1 .732 1.383c-.037 2.127-.065 4.254-.01 6.38a7.538 7.726 0 0 0 .471 2.253 1.115 1.143 0 0 0 .795.668 1.148 1.177 0 0 0 .85-.61c.282-.58.4-1.256.638-1.866a2.153 2.206 0 0 1 .483-.55 1.463 1.5 0 0 1 .249.637 12.145 12.447 0 0 1-.523 2.495 2.192 2.247 0 0 1-2.127 1.527 2.415 2.475 0 0 1-2.3-1.382 8.536 8.749 0 0 1-.865-3.867c-.058-1.267-.024-2.533-.03-3.8a1.44 1.476 0 0 0-.141-.744 5.993 6.142 0 0 0-.307.56 21.249 21.777 0 0 0-1.616 6.99c-.034.426.161.977-.472 1.19a1.373 1.408 0 0 1-1.722-.522 6.617 6.781 0 0 1-.72-2.292c-.204-1.77-.273-3.548-.4-5.327-.013-.164-.047-.329-.103-.696a6.684 6.85 0 0 0-.527.783 16.712 17.128 0 0 0-1.553 6.4c-.05.638-.06 1.286-.094 1.924a.83.85 0 0 1-.094.493c-.559.59-1.244.33-1.887.232a.849.87 0 0 1-.833-.812c-.019-.29-.046-.58-.086-1.044-.782 1.17-1.54 2.137-2.935 1.934-1.358-.203-1.927-1.218-2.264-2.64a4.528 4.64 0 0 1-3.179 2.61c-1.594.271-2.575-.54-3.338-1.962-.155.242-.272.426-.387.61a2.522 2.585 0 0 1-4.229.405 4.629 4.744 0 0 1-1.276-3.413c.043-1.556.266-3.113.417-4.67.022-.231.082-.454.144-.782-.672 0-1.269-.03-1.861.019a.655.671 0 0 0-.383.425 25.847 26.49 0 0 1-4.34 7.716 1.792 1.837 0 0 0-.32.986c-.104 1.924-.107 3.867-.272 5.79a4.867 4.988 0 0 1-1.393 3.104 3.917 4.014 0 0 1-4.517.754 2.692 2.76 0 0 1-1.254-3.731 14.244 14.599 0 0 1 2.085-2.95 23.827 24.42 0 0 1 2.603-2.513 1.376 1.41 0 0 0 .355-1.798 4.29 4.397 0 0 1-3.207 2.078c-1.497.116-2.3-.899-3.079-2.078-.704 1.102-1.37 2.243-2.86 2.03-1.4-.193-2.026-1.218-2.392-2.668-.884 1.672-2.085 2.774-3.893 2.687-1.957-.106-2.571-1.71-3.133-3.451a6.145 6.298 0 0 1-.328.667 12.8 13.119 0 0 1-1.36 1.992 2.289 2.345 0 0 1-3.591-.339 6.132 6.284 0 0 1-1.028-2.939 1.122 1.15 0 0 0-.24-.628c-.145.3-.283.6-.438.899-.932 1.75-2.122 3.22-4.138 3.635a6.032 6.182 0 0 1-3.69-.31 1.56 1.6 0 0 1-.905-.966 3.635 3.725 0 0 1 .914-1.44.924.947 0 0 1 .66.125c.386.213.715.541 1.11.715a1.27 1.302 0 0 0 1.886-.937 2.328 2.386 0 0 0-.442-2.311c-.66-.793-1.389-1.537-2.16-2.378-.217.338-.334.502-.438.676-.805 1.364-1.604 2.727-2.412 4.08a6.583 6.746 0 0 1-2.264 2.446c-1.29.764-2.359.377-2.663-1.111a16.97 17.392 0 0 1-.262-3.52c0-1.72.106-3.442.162-5.162A6.49 6.652 0 0 0 17 8.71c-.294.3-.51.484-.676.697a16.078 16.478 0 0 0-2.65 5.733c-.347 1.257-.611 2.542-.855 3.819a.594.61 0 0 1-.727.58c-1.422-.068-1.772-.406-1.775-1.934-.007-3.393.025-6.797.026-10.19 0-.551.221-.754.73-.658.188.04.371.068.552.116.932.242 1.02.368 1.016 1.364-.006 1.489-.013 2.968-.017 4.457a.83.85 0 0 0 .145.512c.15-.396.27-.822.457-1.208a36.137 37.037 0 0 1 2.025-3.974c.943-1.46 2.07-1.595 3.52-.696a1.59 1.63 0 0 1 .85 1.595 264.444 264.444 0 0 0-.181 5.927 7.585 7.774 0 0 0 .146 1.73c.116.57.515.677.907.261a7.85 8.046 0 0 0 1.086-1.411c.755-1.257 1.451-2.562 2.194-3.829a.615.63 0 0 0-.065-.802 2.419 2.479 0 0 1-.1-2.794 2.806 2.876 0 0 1 2.46-1.528.978 1.003 0 0 1 1.123 1.305 7.898 8.094 0 0 1-.728 1.818 6.013 6.162 0 0 1-.566.841c.454.348.892.667 1.311 1.006.566.473 1.14.947 1.682 1.45a3.477 3.564 0 0 1 1.231 3.248 5.166 5.294 0 0 0 2.09-3.935c.06-1.875.02-3.741.045-5.617.006-.435-.114-.619-.566-.6-.667.03-1.337-.019-2.005-.009a.487.499 0 0 1-.566-.58 1.082 1.109 0 0 1 1.316-1.354c.458.01.92 0 1.377.03a.472.483 0 0 0 .599-.571c0-.88.055-1.76.094-2.64.03-.696.226-.86.908-.792.124.01.249.029.372.048 1.481.28 1.542.368 1.478 1.895-.029.706 0 1.412 0 2.214.979.048 1.971.106 2.963.164.858.049 1.09.397.705 1.19a.996 1.021 0 0 1-.66.435 34.01 34.01 0 0 1-2.628.087.44.45 0 0 0-.524.522c-.045 2.823-.131 5.636-.139 8.45a5.957 6.105 0 0 0 .399 2.001.79.81 0 0 0 1.32.396 3.565 3.654 0 0 0 .944-1.092 6.013 6.162 0 0 0 .904-3.162 9.179 9.407 0 0 1 1.227-4.872c.943-1.634 2.52-2.33 3.962-1.663a8.094 8.295 0 0 1 1.397 1.063zm12.215 4.564a19.102 19.577 0 0 0-.66-2.9 1.295 1.327 0 0 0-2.277-.465 4.48 4.591 0 0 0-1.01 1.653 9.385 9.619 0 0 0-.446 4.573 6.496 6.657 0 0 0 .553 2.08 1.273 1.304 0 0 0 2.314.26 4.245 4.35 0 0 0 .833-1.556c.297-1.18.46-2.388.693-3.645zm16.388 1.72c.033 0 .066.01.094.01a3.868 3.964 0 0 0 .008.774 11.405 11.689 0 0 0 .56 2.417 1.282 1.314 0 0 0 2.373.26 4.787 4.907 0 0 0 .724-1.333 9.87 10.115 0 0 0 .519-4.757 5.536 5.674 0 0 0-.581-2.001 1.398 1.433 0 0 0-2.439-.194 4.245 4.35 0 0 0-.788 1.653c-.23 1.035-.32 2.108-.47 3.172zm-32.815-.222l.17.03a6.202 6.356 0 0 0 .017 1.343 7.772 7.966 0 0 0 .674 2.175 1.167 1.196 0 0 0 2.033.184 4.811 4.93 0 0 0 .92-1.585 10.509 10.77 0 0 0 .405-5.453 2.138 2.19 0 0 0-1.621-2.05 1.987 2.036 0 0 0-1.942 1.779c-.312 1.16-.442 2.378-.656 3.577zm16.697 7.155c-.095-.03-.189-.068-.283-.097a11.886 12.182 0 0 0-3.56 4.844 2.068 2.12 0 0 0-.073.31 1.51 1.547 0 0 0 1.872 1.913 1.904 1.951 0 0 0 1.534-1.75c.242-1.73.347-3.48.508-5.22zM4.848 1.527c-.262.329-.533.648-.785.976A8.223 8.428 0 0 0 2.388 9.05a9.298 9.529 0 0 0 .693 1.837 3.848 3.944 0 0 1 .121.657 2.064 2.115 0 0 1-.637 0A3.971 4.07 0 0 1 .068 6.99 9.359 9.592 0 0 1 4.213.57 2.73 2.798 0 0 1 7.164.338a.99 1.015 0 0 1 .625 1.005c-.013 4.921 0 9.852-.01 14.773a8.018 8.218 0 0 1-.672 3.577 4.006 4.106 0 0 1-2.032 2.185 1.722 1.764 0 0 1-.588.049 1.54 1.579 0 0 1-.01-.542 14.933 15.305 0 0 0 .622-5.22q.024-6.874.052-13.749c0-.241-.025-.483-.039-.734-.09-.049-.178-.107-.266-.155z" data-name="Фигура 978" fill="#a0a0a0" fill-rule="evenodd"/></svg>