<svg xmlns="http://www.w3.org/2000/svg" height="20" width="18"><path d="M17.27 15.73a3.555 3.555 0 0 0-2.44-2.78l-2.85-.93v-.41h-.66v.88l1.12.36-1.55 2.77-1 .52a1.77 1.77 0 0 0-.23-.01h-.1l1.72-3.07-.58-.31L9 15.78l-1.7-3.03-.58.31 1.72 3.07h-.1a1.77 1.77 0 0 0-.23.01l-1-.52-1.55-2.77 1.12-.36v-.88h-.66v.41l-2.85.93a3.559 3.559 0 0 0-2.44 2.78L0 20h18zm-4.19-2.67l1.54.5.15.06-2.82 1.45zm-4.41 3.71h.66v.65h-.66v-.65zm-5.29-3.21l1.54-.5 1.13 2.01-2.82-1.45zm2.64 4.82v.97H3.74l.29-2.87-.66-.06-.3 2.93H.782l.6-3.51A2.867 2.867 0 0 1 2.542 14l4.68 2.41a2.225 2.225 0 0 0-1.202 1.97zm.66.94v-.94a1.634 1.634 0 0 1 1.33-1.58v.94a1.625 1.625 0 0 1-1.33 1.58zm1.29.03a2.32 2.32 0 0 0 .68-1.29h.7a2.26 2.26 0 0 0 .68 1.29H7.97zm3.35-.03a1.625 1.625 0 0 1-1.33-1.58v-.94a1.625 1.625 0 0 1 1.33 1.58v.94zm3.61.03l-.3-2.93-.66.06.29 2.87h-2.28v-.97a2.244 2.244 0 0 0-1.2-1.97l4.68-2.42a2.929 2.929 0 0 1 1.16 1.85l.6 3.51h-2.29zM3.37 7.09a1.632 1.632 0 0 0 1.47 1.6 3.491 3.491 0 0 0 .92 1.51l1.29 1.26a1.7 1.7 0 0 0 1.17.47h1.56a1.7 1.7 0 0 0 1.17-.47l1.29-1.26a3.491 3.491 0 0 0 .92-1.51 1.632 1.632 0 0 0 1.47-1.6 1.568 1.568 0 0 0-.66-1.27l.73-3.56h-1.51a5.014 5.014 0 0 0-8.38 0H3.3l.73 3.56a1.568 1.568 0 0 0-.66 1.27zm9.27.6a2.867 2.867 0 0 1-.87 2.06L10.48 11a.984.984 0 0 1-.7.29H8.22a.984.984 0 0 1-.7-.29L6.23 9.75a2.867 2.867 0 0 1-.87-2.06V6.13h7.28v1.56zm.65.32c.01-.11.01-.21.01-.32v-1.5a.955.955 0 0 1 .67.9.979.979 0 0 1-.68.92zM9 .64a4.357 4.357 0 0 1 3.39 1.62H5.61A4.357 4.357 0 0 1 9 .64zm4.89 2.26l-.53 2.58H4.64l-.14-.64h8.14v-.65H4.37L4.11 2.9h9.78zM4.7 6.19v1.5c0 .11 0 .21.01.32a.979.979 0 0 1-.68-.92.955.955 0 0 1 .67-.9z" fill="#fff" fill-rule="evenodd"/></svg>