<svg xmlns="http://www.w3.org/2000/svg" height="20" width="31"><path d="M30.47 14a7.274 7.279 0 0 0-3.997 1.06c-.226.12-.45.24-.684.35l4.948-5.76a.978.979 0 0 0 .153-1.07 1.028 1.029 0 0 0-.94-.58h-4.478L20.03 4.16l-.263-.51A3.098 3.1 0 0 0 16.998 2h-5.312l-.517-1h2.78a.513.513 0 0 0 .516-.5.507.507 0 0 0-.517-.5H8.27a.507.507 0 0 0-.517.5.513.513 0 0 0 .517.5h1.746l.517 1H8.269a1.499 1.5 0 1 0 0 3h.714l-1.55 3H6.98a1.05 1.05 0 0 0-.826.4L4.913 10h-.888a.505.505 0 0 0-.435.23l-2.51 3.79A9.608 9.608 0 0 0 .525 14a.506.506 0 0 0-.517.5.512.512 0 0 0 .517.5 6.385 6.39 0 0 1 3.497.93A7.366 7.371 0 0 0 8.02 17a7.178 7.183 0 0 0 3.198-.66l.008-.01c.275-.12.532-.26.785-.4a7.029 7.034 0 0 1 6.987 0 7.994 8 0 0 0 7.988 0 6.385 6.39 0 0 1 3.497-.93.512.512 0 0 0 .517-.5.506.506 0 0 0-.53-.5zM19.461 5l1.42 1h-5.896a.512.512 0 0 1-.515-.5V5h4.996zM8.27 4a.513.513 0 0 1-.517-.5.507.507 0 0 1 .517-.5H17a2.062 2.063 0 0 1 1.783 1zm1.868 1h3.297v.5a1.524 1.525 0 0 0 1.55 1.5h7.318l1.42 1H8.59zM6.979 9h10.583v.5a.512.512 0 0 1-.516.5H6.206zm16.004 7a6.407 6.412 0 0 1-3.498-.94 8.052 8.058 0 0 0-7.984 0 6.96 6.965 0 0 1-6.984 0 7.912 7.918 0 0 0-2.305-.9L4.308 11h12.739a1.53 1.531 0 0 0 1.549-1.5V9h1.549v1.5a.517.517 0 0 0 1.032 0V9h1.032v1.5a.517.517 0 0 0 1.033 0V9h1.033v1.5a.517.517 0 0 0 1.032 0V9h4.642L24 15.93a6.92 6.925 0 0 1-1.015.07zm7.485 1a7.274 7.279 0 0 0-3.997 1.06 6.966 6.971 0 0 1-6.987 0 8.056 8.062 0 0 0-7.986 0 6.96 6.965 0 0 1-6.984 0A7.27 7.276 0 0 0 .517 17a.506.506 0 0 0-.517.5.512.512 0 0 0 .517.5 6.382 6.387 0 0 1 3.497.93 7.985 7.991 0 0 0 7.983 0 7.029 7.034 0 0 1 6.987 0 7.994 8 0 0 0 7.988 0 6.385 6.39 0 0 1 3.497-.93.512.512 0 0 0 .517-.5.506.506 0 0 0-.516-.5z" fill="#fff" fill-rule="evenodd"/></svg>