<svg xmlns="http://www.w3.org/2000/svg" height="10" width="26"><path d="M.07 3.68a.44.44 0 0 1 .306-.2l6.501-.87a.434.434 0 0 1 .11.86l-.92.13v1.1l2.16-.23V2.3l-.79-1.19a.434.434 0 0 1-.03-.44.44.44 0 0 1 .37-.24L16.88 0a.433.433 0 0 1 .37.18l2.17 3.04c.01.01.01.03.02.04l6.08-.65a.4.4 0 0 1 .341.11.431.431 0 0 1 .14.32C26 6.88 21.53 10 16.029 10H2.168a.44.439 0 0 1-.414-.31L.02 4.04a.42.42 0 0 1 .05-.36zM5.2 4.78V3.71l-1.733.23v1.04L5.2 4.79zm7.391-3.71l-4 .19.44.67a.481.481 0 0 1 .07.24v2.2l3.9-.42zm4.09-.19l-3.22.15.4 2.82v.01l4.6-.49zM2.489 9.13h13.545c3.83 0 7.11-1.59 8.45-3.84L2.082 7.79zm-.67-2.19l23.086-2.57a3.663 3.662 0 0 0 .2-.84L1.547 6.06zm-.53-1.73L2.6 5.07V4.06L1 4.27z" fill="#fff" fill-rule="evenodd"/></svg>